<svg xmlns="http://www.w3.org/2000/svg" width="24" height="24" viewBox="0 0 24 24"><g transform="translate(-360.945 -238.537)"><rect width="24" height="24" rx="12" transform="translate(360.945 238.537)" fill="#fff"/><g transform="translate(364.168 242.391)"><path d="M394.535,264.9c0-3.91-3.92-7.091-8.738-7.091s-8.738,3.181-8.738,7.091c0,3.505,3.109,6.441,7.308,7,.284.061.672.188.77.431a1.8,1.8,0,0,1,.028.79s-.1.617-.125.748c-.038.221-.176.864.757.471a28.209,28.209,0,0,0,6.866-5.073h0a6.309,6.309,0,0,0,1.873-4.363" transform="translate(-377.059 -257.805)" fill="#0890fa"/><g transform="translate(2.867 5.202)"><path d="M408.74,283.813h-.613a.17.17,0,0,0-.17.17v3.807a.17.17,0,0,0,.17.17h.613a.17.17,0,0,0,.17-.17v-3.807a.17.17,0,0,0-.17-.17" transform="translate(-404.644 -283.813)" fill="#fff"/><path d="M419.157,283.813h-.613a.17.17,0,0,0-.17.17v2.262l-1.745-2.356-.013-.017h0l-.01-.01,0,0-.009-.008,0,0-.009-.006-.005,0-.009-.005-.005,0-.01,0-.006,0-.01,0h-.006l-.01,0h-.644a.17.17,0,0,0-.17.17v3.807a.17.17,0,0,0,.17.17h.613a.17.17,0,0,0,.17-.17v-2.261l1.747,2.359a.169.169,0,0,0,.043.042h0l.011.006,0,0,.008,0,.008,0,.005,0,.012,0h0a.163.163,0,0,0,.044.006h.613a.17.17,0,0,0,.17-.17v-3.807a.17.17,0,0,0-.17-.17" transform="translate(-410.842 -283.813)" fill="#fff"/><path d="M394.011,287.007h-1.666v-3.024a.17.17,0,0,0-.17-.17h-.613a.17.17,0,0,0-.17.17v3.807h0a.168.168,0,0,0,.048.117l0,0,0,0a.169.169,0,0,0,.118.047h2.449a.17.17,0,0,0,.17-.17v-.613a.17.17,0,0,0-.17-.17" transform="translate(-391.392 -283.813)" fill="#fff"/><path d="M439.416,284.766a.17.17,0,0,0,.17-.17v-.613a.17.17,0,0,0-.17-.17h-2.449a.169.169,0,0,0-.118.048l0,0,0,0a.17.17,0,0,0-.047.117h0v3.807h0a.169.169,0,0,0,.048.118l0,0,0,0a.169.169,0,0,0,.118.048h2.449a.17.17,0,0,0,.17-.17v-.613a.17.17,0,0,0-.17-.17H437.75v-.644h1.665a.17.17,0,0,0,.17-.17v-.613a.17.17,0,0,0-.17-.17H437.75v-.643Z" transform="translate(-427.716 -283.813)" fill="#fff"/></g></g></g></svg>