<svg xmlns="http://www.w3.org/2000/svg" width="70.832" height="60.068" viewBox="0 0 70.832 60.068"><g transform="translate(2186.822 -1039.475)"><circle cx="11.321" cy="11.321" r="11.321" transform="translate(-2180.089 1039.475)" fill="#ffca1a"/><g transform="translate(-2186.724 1095.045)"><path d="M-2184.376,1158.977l-.363-.989h-1.38l-.364.989h-.242l1.2-3.18h.208l1.187,3.18Zm-.976-2.661a1.37,1.37,0,0,1-.04-.131c-.01-.037-.021-.074-.033-.111h-.009a2.058,2.058,0,0,1-.073.237l-.535,1.476h1.226Z" transform="translate(2186.724 -1155.615)" fill="#fff" stroke="#fff" stroke-miterlimit="10" stroke-width="0.135"/><path d="M-2174.179,1156v2.979h-.218V1156h-.918v-.2h2.053v.2Z" transform="translate(2180.782 -1155.615)" fill="#fff" stroke="#fff" stroke-miterlimit="10" stroke-width="0.135"/><path d="M-2168.546,1156.134a.163.163,0,0,1-.118-.049.162.162,0,0,1-.051-.124.151.151,0,0,1,.052-.119.174.174,0,0,1,.117-.045.181.181,0,0,1,.12.044.148.148,0,0,1,.052.12.168.168,0,0,1-.051.122A.164.164,0,0,1-2168.546,1156.134Zm-.1,2.844v-2.271h.2v2.271Z" transform="translate(2177.346 -1155.615)" fill="#fff" stroke="#fff" stroke-miterlimit="10" stroke-width="0.135"/><path d="M-2163.772,1158.78v-.413h-.009a.828.828,0,0,1-.328.342.96.96,0,0,1-.49.126.864.864,0,0,1-.685-.306,1.25,1.25,0,0,1-.265-.845,1.325,1.325,0,0,1,.29-.891.941.941,0,0,1,.751-.341.755.755,0,0,1,.727.419h.009v-1.455h.2v3.363Zm0-1.382a.768.768,0,0,0-.2-.538.7.7,0,0,0-.54-.22.742.742,0,0,0-.59.274,1.126,1.126,0,0,0-.233.753,1.115,1.115,0,0,0,.21.726.665.665,0,0,0,.54.257.762.762,0,0,0,.6-.241.856.856,0,0,0,.213-.587Z" transform="translate(2175.698 -1155.417)" fill="#fff" stroke="#fff" stroke-miterlimit="10" stroke-width="0.135"/><path d="M-2158.269,1160.429a1.337,1.337,0,0,1-.275.455.53.53,0,0,1-.388.149.473.473,0,0,1-.177-.031v-.2a.518.518,0,0,0,.187.031q.272,0,.43-.378l.211-.5-.86-2.254h.228l.686,1.85c.015.04.026.07.031.091s.013.053.02.075h.009l.053-.153.732-1.863h.222Z" transform="translate(2172.362 -1156.603)" fill="#fff" stroke="#fff" stroke-miterlimit="10" stroke-width="0.135"/><path d="M-2148.651,1158.977v-3.18h.8a1.673,1.673,0,0,1,1.2.395,1.518,1.518,0,0,1,.413,1.151,1.619,1.619,0,0,1-.442,1.181,1.626,1.626,0,0,1-1.221.454Zm.219-2.979v2.779h.5a1.5,1.5,0,0,0,1.087-.367,1.406,1.406,0,0,0,.38-1.059q0-1.353-1.422-1.353Z" transform="translate(2166.899 -1155.615)" fill="#fff" stroke="#fff" stroke-miterlimit="10" stroke-width="0.135"/><path d="M-2139.717,1159.9v-.455h-.01a.888.888,0,0,1-.315.371.809.809,0,0,1-.46.139.708.708,0,0,1-.512-.181.612.612,0,0,1-.189-.459q0-.594.788-.718l.7-.1q0-.732-.551-.732a1.119,1.119,0,0,0-.729.3v-.246a1.11,1.11,0,0,1,.342-.171,1.321,1.321,0,0,1,.407-.071.686.686,0,0,1,.542.218.928.928,0,0,1,.192.632v1.477Zm-.625-1.131a1.09,1.09,0,0,0-.5.165.445.445,0,0,0-.144.372.446.446,0,0,0,.133.333.515.515,0,0,0,.375.131.7.7,0,0,0,.545-.243.9.9,0,0,0,.218-.627v-.222Z" transform="translate(2163.021 -1156.542)" fill="#fff" stroke="#fff" stroke-miterlimit="10" stroke-width="0.135"/><path d="M-2134.623,1160.429a1.341,1.341,0,0,1-.275.455.527.527,0,0,1-.387.149.476.476,0,0,1-.178-.031v-.2a.515.515,0,0,0,.186.031q.274,0,.431-.378l.21-.5-.861-2.254h.229l.685,1.85c.015.04.025.07.031.091s.013.053.02.075h.009l.054-.153.731-1.863h.222Z" transform="translate(2160.05 -1156.603)" fill="#fff" stroke="#fff" stroke-miterlimit="10" stroke-width="0.135"/><path d="M-2129.36,1159.8v-.246a.849.849,0,0,0,.28.157.865.865,0,0,0,.284.058q.534,0,.534-.437a.333.333,0,0,0-.117-.257,1.418,1.418,0,0,0-.381-.219,1.294,1.294,0,0,1-.458-.294.545.545,0,0,1-.132-.369.546.546,0,0,1,.212-.448.8.8,0,0,1,.522-.171.99.99,0,0,1,.5.12v.231a.945.945,0,0,0-.523-.164.541.541,0,0,0-.362.117.38.38,0,0,0-.137.3.388.388,0,0,0,.087.263,1.148,1.148,0,0,0,.381.232,1.68,1.68,0,0,1,.488.3.5.5,0,0,1,.133.363.569.569,0,0,1-.2.447.826.826,0,0,1-.56.176A.927.927,0,0,1-2129.36,1159.8Z" transform="translate(2156.854 -1156.542)" fill="#fff" stroke="#fff" stroke-miterlimit="10" stroke-width="0.135"/><path d="M-2120.112,1158.807v-.251a1.278,1.278,0,0,0,.692.217.891.891,0,0,0,.565-.154.521.521,0,0,0,.193-.431.564.564,0,0,0-.13-.389,2.555,2.555,0,0,0-.562-.4,2.007,2.007,0,0,1-.613-.471.765.765,0,0,1-.128-.438.74.74,0,0,1,.261-.572,1.006,1.006,0,0,1,.7-.235,1.764,1.764,0,0,1,.568.1v.23a1.431,1.431,0,0,0-.6-.126.759.759,0,0,0-.514.164.53.53,0,0,0-.189.417.559.559,0,0,0,.129.388,2.56,2.56,0,0,0,.56.393,2,2,0,0,1,.594.449.731.731,0,0,1,.147.451.769.769,0,0,1-.254.6,1.031,1.031,0,0,1-.718.23,1.652,1.652,0,0,1-.378-.051A1.231,1.231,0,0,1-2120.112,1158.807Z" transform="translate(2152.039 -1155.557)" fill="#fff" stroke="#fff" stroke-miterlimit="10" stroke-width="0.135"/><path d="M-2113.993,1158.778a1.119,1.119,0,0,0,.217.732.725.725,0,0,0,.593.264,1.208,1.208,0,0,0,.745-.282v.218a1.327,1.327,0,0,1-.787.25.889.889,0,0,1-.709-.315,1.321,1.321,0,0,1-.271-.889,1.265,1.265,0,0,1,.283-.837.912.912,0,0,1,.735-.341.768.768,0,0,1,.65.3,1.309,1.309,0,0,1,.226.811v.091Zm1.469-.187a1,1,0,0,0-.189-.609.585.585,0,0,0-.483-.218.709.709,0,0,0-.529.214,1.026,1.026,0,0,0-.258.613Z" transform="translate(2148.963 -1156.542)" fill="#fff" stroke="#fff" stroke-miterlimit="10" stroke-width="0.135"/><path d="M-2106.585,1157.858a.405.405,0,0,0-.24-.073.531.531,0,0,0-.45.277,1.433,1.433,0,0,0-.182.788v1.067h-.2v-2.271h.2v.5h.009a.823.823,0,0,1,.246-.4.582.582,0,0,1,.39-.145.6.6,0,0,1,.227.041Z" transform="translate(2145.553 -1156.554)" fill="#fff" stroke="#fff" stroke-miterlimit="10" stroke-width="0.135"/><path d="M-2102.131,1159.965h-.186l-.878-2.271h.228l.677,1.808a1.416,1.416,0,0,1,.069.238h.009a1.411,1.411,0,0,1,.064-.229l.7-1.817h.221Z" transform="translate(2143.23 -1156.603)" fill="#fff" stroke="#fff" stroke-miterlimit="10" stroke-width="0.135"/><path d="M-2096.787,1156.134a.165.165,0,0,1-.118-.049.164.164,0,0,1-.051-.124.15.15,0,0,1,.052-.119.172.172,0,0,1,.116-.045.183.183,0,0,1,.121.044.149.149,0,0,1,.052.12.168.168,0,0,1-.051.122A.166.166,0,0,1-2096.787,1156.134Zm-.1,2.844v-2.271h.2v2.271Z" transform="translate(2139.981 -1155.615)" fill="#fff" stroke="#fff" stroke-miterlimit="10" stroke-width="0.135"/><path d="M-2092.155,1159.8a1.131,1.131,0,0,1-.6.155.954.954,0,0,1-.748-.318,1.2,1.2,0,0,1-.284-.833,1.25,1.25,0,0,1,.32-.886,1.067,1.067,0,0,1,.821-.345,1.234,1.234,0,0,1,.5.107v.23a.993.993,0,0,0-.534-.151.815.815,0,0,0-.647.287,1.093,1.093,0,0,0-.249.744,1.062,1.062,0,0,0,.227.71.748.748,0,0,0,.6.269.991.991,0,0,0,.6-.182Z" transform="translate(2138.333 -1156.542)" fill="#fff" stroke="#fff" stroke-miterlimit="10" stroke-width="0.135"/><path d="M-2087.949,1158.778a1.123,1.123,0,0,0,.217.732.725.725,0,0,0,.593.264,1.211,1.211,0,0,0,.746-.282v.218a1.331,1.331,0,0,1-.788.25.887.887,0,0,1-.709-.315,1.317,1.317,0,0,1-.272-.889,1.266,1.266,0,0,1,.283-.837.911.911,0,0,1,.735-.341.766.766,0,0,1,.649.3,1.3,1.3,0,0,1,.227.811v.091Zm1.468-.187a1.012,1.012,0,0,0-.188-.609.586.586,0,0,0-.484-.218.711.711,0,0,0-.529.214,1.03,1.03,0,0,0-.258.613Z" transform="translate(2135.403 -1156.542)" fill="#fff" stroke="#fff" stroke-miterlimit="10" stroke-width="0.135"/><path d="M-2075.569,1158.815a2.087,2.087,0,0,1-.805.16,1.392,1.392,0,0,1-1.063-.438,1.6,1.6,0,0,1-.411-1.143,1.721,1.721,0,0,1,.446-1.241,1.5,1.5,0,0,1,1.133-.467,2.1,2.1,0,0,1,.7.118v.233a1.693,1.693,0,0,0-.705-.151,1.263,1.263,0,0,0-.974.406,1.529,1.529,0,0,0-.374,1.08,1.427,1.427,0,0,0,.357,1.026,1.2,1.2,0,0,0,.908.376,1.763,1.763,0,0,0,.788-.17Z" transform="translate(2130.032 -1155.557)" fill="#fff" stroke="#fff" stroke-miterlimit="10" stroke-width="0.135"/><path d="M-2069.553,1159.96a1,1,0,0,1-.787-.327,1.241,1.241,0,0,1-.289-.851,1.234,1.234,0,0,1,.3-.885,1.05,1.05,0,0,1,.8-.32.975.975,0,0,1,.768.317,1.276,1.276,0,0,1,.282.879,1.258,1.258,0,0,1-.287.858A.993.993,0,0,1-2069.553,1159.96Zm.016-2.2a.812.812,0,0,0-.641.271,1.1,1.1,0,0,0-.238.751,1.058,1.058,0,0,0,.233.717.8.8,0,0,0,.636.271.778.778,0,0,0,.632-.266,1.123,1.123,0,0,0,.222-.739,1.123,1.123,0,0,0-.221-.745A.776.776,0,0,0-2069.537,1157.764Z" transform="translate(2126.273 -1156.542)" fill="#fff" stroke="#fff" stroke-miterlimit="10" stroke-width="0.135"/><path d="M-2063.45,1162.128a.167.167,0,0,1-.126-.052.173.173,0,0,1-.052-.128.167.167,0,0,1,.052-.127.172.172,0,0,1,.126-.05.183.183,0,0,1,.129.05.166.166,0,0,1,.053.127.172.172,0,0,1-.053.128A.177.177,0,0,1-2063.45,1162.128Z" transform="translate(2122.627 -1158.725)" fill="#fff" stroke="#fff" stroke-miterlimit="10" stroke-width="0.135"/><path d="M-2060.39,1162.436h-.172l.333-1.054h.226Z" transform="translate(2121.03 -1158.523)" fill="#fff" stroke="#fff" stroke-miterlimit="10" stroke-width="0.135"/><path d="M-2056.4,1158.977v-3.18h.219v2.981h1.276v.2Z" transform="translate(2118.864 -1155.615)" fill="#fff" stroke="#fff" stroke-miterlimit="10" stroke-width="0.135"/><path d="M-2050.362,1159.219a.705.705,0,0,1-.3.075q-.5,0-.5-.6v-1.526h-.408v-.186h.408v-.59l.1-.036c.036-.01.07-.022.1-.033v.659h.6v.186h-.6v1.5a.6.6,0,0,0,.075.34.286.286,0,0,0,.252.105.565.565,0,0,0,.272-.082Z" transform="translate(2116.35 -1155.887)" fill="#fff" stroke="#fff" stroke-miterlimit="10" stroke-width="0.135"/><path d="M-2045.251,1158.78v-.413h-.009a.829.829,0,0,1-.328.342.959.959,0,0,1-.49.126.861.861,0,0,1-.684-.306,1.247,1.247,0,0,1-.265-.845,1.325,1.325,0,0,1,.289-.891.938.938,0,0,1,.75-.341.756.756,0,0,1,.728.419h.009v-1.455h.2v3.363Zm0-1.382a.771.771,0,0,0-.2-.538.7.7,0,0,0-.54-.22.742.742,0,0,0-.59.274,1.126,1.126,0,0,0-.233.753,1.119,1.119,0,0,0,.209.726.667.667,0,0,0,.54.257.761.761,0,0,0,.6-.241.855.855,0,0,0,.213-.587Z" transform="translate(2113.983 -1155.417)" fill="#fff" stroke="#fff" stroke-miterlimit="10" stroke-width="0.135"/><path d="M-2039.858,1162.128a.169.169,0,0,1-.126-.052.176.176,0,0,1-.051-.128.17.17,0,0,1,.051-.127.175.175,0,0,1,.126-.05.181.181,0,0,1,.129.05.165.165,0,0,1,.053.127.171.171,0,0,1-.053.128A.175.175,0,0,1-2039.858,1162.128Z" transform="translate(2110.342 -1158.725)" fill="#fff" stroke="#fff" stroke-miterlimit="10" stroke-width="0.135"/></g><g transform="translate(-2174.517 1084.144)"><g transform="translate(0 1.644)"><path d="M-2159.389,1136.617v4.892h-.357v-4.892h-1.508v-.332h3.373v.332Z" transform="translate(2161.254 -1136.197)" fill="#fff" stroke="#fff" stroke-miterlimit="10" stroke-width="0.346"/><path d="M-2150.027,1141.509v-5.224h.36v5.224Z" transform="translate(2155.408 -1136.197)" fill="#fff" stroke="#fff" stroke-miterlimit="10" stroke-width="0.346"/><path d="M-2144.143,1141.509v-5.224h1.308a2.755,2.755,0,0,1,1.978.649,2.5,2.5,0,0,1,.677,1.89,2.662,2.662,0,0,1-.727,1.94,2.673,2.673,0,0,1-2.005.745Zm.361-4.892v4.564h.819a2.463,2.463,0,0,0,1.785-.6,2.311,2.311,0,0,0,.623-1.739q0-2.222-2.335-2.222Z" transform="translate(2152.344 -1136.197)" fill="#fff" stroke="#fff" stroke-miterlimit="10" stroke-width="0.346"/><path d="M-2130.3,1139.523v1.985h-.357v-1.978l-1.6-3.246h.4l1.216,2.517q.066.131.164.387h.015a3.656,3.656,0,0,1,.178-.379l1.275-2.524h.39Z" transform="translate(2146.153 -1136.197)" fill="#fff" stroke="#fff" stroke-miterlimit="10" stroke-width="0.346"/><path d="M-2119.556,1139.523v1.985h-.357v-1.978l-1.6-3.246h.4l1.217,2.517c.044.087.1.216.164.387h.014a3.776,3.776,0,0,1,.179-.379l1.275-2.524h.39Z" transform="translate(2140.56 -1136.197)" fill="#fff" stroke="#fff" stroke-miterlimit="10" stroke-width="0.346"/><path d="M-2103.239,1141.509v-5.224h1.308a2.756,2.756,0,0,1,1.978.649,2.5,2.5,0,0,1,.677,1.89,2.66,2.66,0,0,1-.727,1.94,2.672,2.672,0,0,1-2.005.745Zm.361-4.892v4.564h.82a2.463,2.463,0,0,0,1.785-.6,2.313,2.313,0,0,0,.623-1.739q0-2.222-2.335-2.222Z" transform="translate(2131.045 -1136.197)" fill="#fff" stroke="#fff" stroke-miterlimit="10" stroke-width="0.346"/><path d="M-2087.88,1141.509l-.6-1.625h-2.266l-.6,1.625h-.4l1.971-5.224h.342l1.949,5.224Zm-1.6-4.372a2,2,0,0,1-.065-.215c-.017-.061-.035-.121-.055-.182h-.014a3.5,3.5,0,0,1-.12.39l-.878,2.423h2.014Z" transform="translate(2125.056 -1136.197)" fill="#fff" stroke="#fff" stroke-miterlimit="10" stroke-width="0.346"/><path d="M-2079.451,1139.523v1.985h-.357v-1.978l-1.6-3.246h.4l1.216,2.517q.066.131.164.387h.014a3.859,3.859,0,0,1,.179-.379l1.274-2.524h.39Z" transform="translate(2119.677 -1136.197)" fill="#fff" stroke="#fff" stroke-miterlimit="10" stroke-width="0.346"/><path d="M-2070.385,1141.228v-.411a2.1,2.1,0,0,0,1.136.357,1.464,1.464,0,0,0,.929-.253.855.855,0,0,0,.317-.709.925.925,0,0,0-.213-.639,4.218,4.218,0,0,0-.924-.651,3.282,3.282,0,0,1-1-.774,1.253,1.253,0,0,1-.211-.72,1.217,1.217,0,0,1,.43-.94,1.653,1.653,0,0,1,1.147-.386,2.917,2.917,0,0,1,.933.156v.379a2.349,2.349,0,0,0-.98-.208,1.246,1.246,0,0,0-.844.269.867.867,0,0,0-.311.685.918.918,0,0,0,.213.638,4.242,4.242,0,0,0,.92.645,3.3,3.3,0,0,1,.975.737,1.206,1.206,0,0,1,.242.742,1.263,1.263,0,0,1-.417.98,1.691,1.691,0,0,1-1.179.379,2.713,2.713,0,0,1-.621-.084A2,2,0,0,1-2070.385,1141.228Z" transform="translate(2113.938 -1136.103)" fill="#fff" stroke="#fff" stroke-miterlimit="10" stroke-width="0.346"/></g><circle cx="0.518" cy="0.518" r="0.518" transform="translate(5.073 0)" fill="#ffca1a" stroke="#ffca1a" stroke-miterlimit="10" stroke-width="0.346"/></g><path d="M-2149.338,1081.095h-21.581a9.443,9.443,0,0,1-2.295-5.176s-1.757-8.349,7.617-12.548c0,0,.683-11.425,13.377-15.282,0,0,12.792-4.98,21.532,8.056,0,0,12.206-1.611,15.917,10.3a14.568,14.568,0,0,1-3.564,14.6h-19.92l-8.5,4.639v-15.331l8.154-4.785h-10.741Zm3.613-4.956a.415.415,0,0,0-.415.415.415.415,0,0,0,.415.415.415.415,0,0,0,.415-.415A.415.415,0,0,0-2145.725,1076.139Z" transform="translate(-6.967 -3.999)" fill="#fff" opacity="0.9"/></g></svg>