<svg xmlns="http://www.w3.org/2000/svg" width="94.387" height="80.068" viewBox="0 0 94.387 80.068"><g transform="translate(2186.822 -1039.475)"><circle cx="15.094" cy="15.094" r="15.094" transform="translate(-2177.878 1039.475)" fill="#ffca1a"/><g transform="translate(-2186.724 1113.569)"><path d="M-2183.593,1160.037l-.484-1.319h-1.84l-.485,1.319h-.323l1.6-4.24h.278l1.582,4.24Zm-1.3-3.548a1.773,1.773,0,0,1-.053-.175c-.013-.049-.029-.1-.044-.147H-2185a2.673,2.673,0,0,1-.1.316l-.713,1.967h1.635Z" transform="translate(2186.724 -1155.554)" fill="#fff" stroke="#fff" stroke-miterlimit="10" stroke-width="0.135"/><path d="M-2173.8,1156.066v3.971h-.29v-3.971h-1.224v-.269h2.738v.269Z" transform="translate(2182.605 -1155.554)" fill="#fff" stroke="#fff" stroke-miterlimit="10" stroke-width="0.135"/><path d="M-2168.49,1156.246a.218.218,0,0,1-.157-.065.217.217,0,0,1-.068-.165.2.2,0,0,1,.069-.158.231.231,0,0,1,.156-.06.241.241,0,0,1,.16.059.2.2,0,0,1,.07.159.222.222,0,0,1-.068.163A.219.219,0,0,1-2168.49,1156.246Zm-.134,3.791v-3.028h.272v3.028Z" transform="translate(2180.224 -1155.554)" fill="#fff" stroke="#fff" stroke-miterlimit="10" stroke-width="0.135"/><path d="M-2163.18,1159.9v-.551h-.012a1.1,1.1,0,0,1-.438.456,1.278,1.278,0,0,1-.653.168,1.151,1.151,0,0,1-.913-.407,1.667,1.667,0,0,1-.353-1.127,1.766,1.766,0,0,1,.386-1.187,1.253,1.253,0,0,1,1-.454,1.007,1.007,0,0,1,.97.559h.012v-1.94h.273v4.484Zm0-1.843a1.026,1.026,0,0,0-.268-.718.928.928,0,0,0-.72-.294.99.99,0,0,0-.787.365,1.5,1.5,0,0,0-.311,1,1.486,1.486,0,0,0,.281.968.887.887,0,0,0,.719.342,1.016,1.016,0,0,0,.8-.321,1.14,1.14,0,0,0,.284-.782Z" transform="translate(2179.081 -1155.417)" fill="#fff" stroke="#fff" stroke-miterlimit="10" stroke-width="0.135"/><path d="M-2157.978,1161.34a1.786,1.786,0,0,1-.366.606.708.708,0,0,1-.518.2.632.632,0,0,1-.236-.042v-.272a.691.691,0,0,0,.249.042q.363,0,.573-.5l.281-.671-1.147-3h.3l.914,2.467c.02.053.034.094.042.121a.989.989,0,0,0,.027.1h.011l.072-.2.976-2.484h.3Z" transform="translate(2176.768 -1156.239)" fill="#fff" stroke="#fff" stroke-miterlimit="10" stroke-width="0.135"/><path d="M-2148.651,1160.037v-4.24h1.063a2.231,2.231,0,0,1,1.605.526,2.024,2.024,0,0,1,.55,1.534,2.159,2.159,0,0,1-.59,1.574,2.169,2.169,0,0,1-1.628.605Zm.292-3.971v3.705h.666a2,2,0,0,0,1.449-.489,1.874,1.874,0,0,0,.506-1.412q0-1.8-1.9-1.8Z" transform="translate(2172.982 -1155.554)" fill="#fff" stroke="#fff" stroke-miterlimit="10" stroke-width="0.135"/><path d="M-2139.222,1160.68v-.606h-.012a1.186,1.186,0,0,1-.421.495,1.079,1.079,0,0,1-.614.185.944.944,0,0,1-.683-.242.815.815,0,0,1-.252-.612q0-.792,1.051-.958l.932-.14q0-.976-.734-.976a1.492,1.492,0,0,0-.972.4v-.328a1.475,1.475,0,0,1,.456-.228,1.762,1.762,0,0,1,.543-.094.914.914,0,0,1,.723.29,1.237,1.237,0,0,1,.256.843v1.97Zm-.834-1.508a1.455,1.455,0,0,0-.669.22.594.594,0,0,0-.192.5.6.6,0,0,0,.178.444.684.684,0,0,0,.5.175.935.935,0,0,0,.727-.324,1.206,1.206,0,0,0,.29-.835v-.3Z" transform="translate(2170.294 -1156.197)" fill="#fff" stroke="#fff" stroke-miterlimit="10" stroke-width="0.135"/><path d="M-2134.332,1161.34a1.786,1.786,0,0,1-.367.606.7.7,0,0,1-.517.2.635.635,0,0,1-.237-.042v-.272a.686.686,0,0,0,.248.042c.244,0,.435-.168.575-.5l.281-.671-1.147-3h.3l.914,2.467c.02.053.033.094.041.121s.017.071.026.1h.012l.071-.2.976-2.484h.3Z" transform="translate(2168.234 -1156.239)" fill="#fff" stroke="#fff" stroke-miterlimit="10" stroke-width="0.135"/><path d="M-2129.36,1160.547v-.328a1.138,1.138,0,0,0,.373.209,1.158,1.158,0,0,0,.379.077q.712,0,.712-.583a.445.445,0,0,0-.156-.343,1.9,1.9,0,0,0-.509-.293,1.73,1.73,0,0,1-.611-.392.727.727,0,0,1-.176-.492.728.728,0,0,1,.283-.6,1.069,1.069,0,0,1,.7-.228,1.324,1.324,0,0,1,.668.16v.308a1.261,1.261,0,0,0-.7-.219.721.721,0,0,0-.482.155.506.506,0,0,0-.183.4.517.517,0,0,0,.116.35,1.528,1.528,0,0,0,.509.309,2.242,2.242,0,0,1,.65.395.662.662,0,0,1,.177.484.759.759,0,0,1-.27.6,1.1,1.1,0,0,1-.747.234A1.236,1.236,0,0,1-2129.36,1160.547Z" transform="translate(2166.019 -1156.197)" fill="#fff" stroke="#fff" stroke-miterlimit="10" stroke-width="0.135"/><path d="M-2120.112,1159.847v-.334a1.7,1.7,0,0,0,.923.289,1.187,1.187,0,0,0,.754-.205.694.694,0,0,0,.257-.575.751.751,0,0,0-.173-.519,3.4,3.4,0,0,0-.75-.528,2.672,2.672,0,0,1-.817-.629,1.018,1.018,0,0,1-.171-.584.987.987,0,0,1,.349-.763,1.341,1.341,0,0,1,.932-.313,2.351,2.351,0,0,1,.757.127v.307a1.9,1.9,0,0,0-.8-.168,1.011,1.011,0,0,0-.685.218.706.706,0,0,0-.252.557.745.745,0,0,0,.172.517,3.4,3.4,0,0,0,.747.523,2.668,2.668,0,0,1,.792.6.976.976,0,0,1,.2.6,1.025,1.025,0,0,1-.338.8,1.375,1.375,0,0,1-.957.307,2.2,2.2,0,0,1-.5-.068A1.645,1.645,0,0,1-2120.112,1159.847Z" transform="translate(2162.681 -1155.514)" fill="#fff" stroke="#fff" stroke-miterlimit="10" stroke-width="0.135"/><path d="M-2113.922,1159.178a1.493,1.493,0,0,0,.289.976.966.966,0,0,0,.791.352,1.61,1.61,0,0,0,.993-.376v.29a1.769,1.769,0,0,1-1.05.333,1.186,1.186,0,0,1-.946-.42,1.762,1.762,0,0,1-.361-1.185,1.688,1.688,0,0,1,.377-1.116,1.215,1.215,0,0,1,.98-.455,1.023,1.023,0,0,1,.866.4,1.744,1.744,0,0,1,.3,1.082v.122Zm1.958-.249a1.339,1.339,0,0,0-.252-.813.78.78,0,0,0-.644-.29.945.945,0,0,0-.706.286,1.368,1.368,0,0,0-.344.817Z" transform="translate(2160.549 -1156.197)" fill="#fff" stroke="#fff" stroke-miterlimit="10" stroke-width="0.135"/><path d="M-2106.228,1157.943a.541.541,0,0,0-.32-.1.707.707,0,0,0-.6.369,1.91,1.91,0,0,0-.243,1.05v1.422h-.266v-3.028h.266v.671h.012a1.1,1.1,0,0,1,.329-.538.776.776,0,0,1,.52-.193.8.8,0,0,1,.3.054Z" transform="translate(2158.185 -1156.205)" fill="#fff" stroke="#fff" stroke-miterlimit="10" stroke-width="0.135"/><path d="M-2101.776,1160.723h-.248l-1.171-3.029h.3l.9,2.41a1.93,1.93,0,0,1,.092.317h.012a1.872,1.872,0,0,1,.086-.3l.932-2.422h.3Z" transform="translate(2156.575 -1156.239)" fill="#fff" stroke="#fff" stroke-miterlimit="10" stroke-width="0.135"/><path d="M-2096.731,1156.246a.219.219,0,0,1-.157-.065.218.218,0,0,1-.068-.165.2.2,0,0,1,.069-.158.23.23,0,0,1,.155-.06.244.244,0,0,1,.161.059.2.2,0,0,1,.07.159.224.224,0,0,1-.068.163A.222.222,0,0,1-2096.731,1156.246Zm-.133,3.791v-3.028h.272v3.028Z" transform="translate(2154.323 -1155.554)" fill="#fff" stroke="#fff" stroke-miterlimit="10" stroke-width="0.135"/><path d="M-2091.61,1160.547a1.508,1.508,0,0,1-.8.207,1.271,1.271,0,0,1-1-.424,1.606,1.606,0,0,1-.378-1.11,1.667,1.667,0,0,1,.427-1.182,1.422,1.422,0,0,1,1.094-.46,1.643,1.643,0,0,1,.671.143v.307a1.325,1.325,0,0,0-.712-.2,1.087,1.087,0,0,0-.863.383,1.459,1.459,0,0,0-.332.992,1.414,1.414,0,0,0,.3.947,1,1,0,0,0,.8.358,1.321,1.321,0,0,0,.793-.243Z" transform="translate(2153.18 -1156.197)" fill="#fff" stroke="#fff" stroke-miterlimit="10" stroke-width="0.135"/><path d="M-2087.878,1159.178a1.5,1.5,0,0,0,.289.976.966.966,0,0,0,.79.352,1.614,1.614,0,0,0,1-.376v.29a1.774,1.774,0,0,1-1.051.333,1.184,1.184,0,0,1-.946-.42,1.759,1.759,0,0,1-.362-1.185,1.688,1.688,0,0,1,.378-1.116,1.214,1.214,0,0,1,.98-.455,1.022,1.022,0,0,1,.866.4,1.739,1.739,0,0,1,.3,1.082v.122Zm1.958-.249a1.345,1.345,0,0,0-.251-.813.781.781,0,0,0-.645-.29.948.948,0,0,0-.706.286,1.373,1.373,0,0,0-.344.817Z" transform="translate(2151.15 -1156.197)" fill="#fff" stroke="#fff" stroke-miterlimit="10" stroke-width="0.135"/><path d="M-2074.809,1159.858a2.785,2.785,0,0,1-1.074.213,1.856,1.856,0,0,1-1.418-.584,2.139,2.139,0,0,1-.549-1.524,2.3,2.3,0,0,1,.595-1.654,2,2,0,0,1,1.511-.623,2.8,2.8,0,0,1,.934.157v.31a2.26,2.26,0,0,0-.94-.2,1.685,1.685,0,0,0-1.3.541,2.039,2.039,0,0,0-.5,1.44,1.9,1.9,0,0,0,.477,1.368,1.6,1.6,0,0,0,1.211.5,2.353,2.353,0,0,0,1.05-.227Z" transform="translate(2147.426 -1155.514)" fill="#fff" stroke="#fff" stroke-miterlimit="10" stroke-width="0.135"/><path d="M-2069.194,1160.754a1.33,1.33,0,0,1-1.049-.435,1.653,1.653,0,0,1-.386-1.135,1.645,1.645,0,0,1,.4-1.18,1.4,1.4,0,0,1,1.063-.426,1.3,1.3,0,0,1,1.024.423,1.7,1.7,0,0,1,.376,1.172,1.678,1.678,0,0,1-.383,1.145A1.324,1.324,0,0,1-2069.194,1160.754Zm.021-2.927a1.082,1.082,0,0,0-.854.361,1.465,1.465,0,0,0-.317,1,1.41,1.41,0,0,0,.311.956,1.062,1.062,0,0,0,.848.361,1.037,1.037,0,0,0,.843-.354,1.5,1.5,0,0,0,.3-.985,1.493,1.493,0,0,0-.295-.993A1.034,1.034,0,0,0-2069.173,1157.826Z" transform="translate(2144.821 -1156.197)" fill="#fff" stroke="#fff" stroke-miterlimit="10" stroke-width="0.135"/><path d="M-2063.391,1162.247a.223.223,0,0,1-.168-.069.231.231,0,0,1-.069-.17.223.223,0,0,1,.069-.17.23.23,0,0,1,.168-.066.242.242,0,0,1,.172.066.221.221,0,0,1,.071.17.228.228,0,0,1-.071.17A.235.235,0,0,1-2063.391,1162.247Z" transform="translate(2142.294 -1157.71)" fill="#fff" stroke="#fff" stroke-miterlimit="10" stroke-width="0.135"/><path d="M-2060.332,1162.787h-.23l.444-1.4h.3Z" transform="translate(2141.187 -1157.57)" fill="#fff" stroke="#fff" stroke-miterlimit="10" stroke-width="0.135"/><path d="M-2056.4,1160.037v-4.24h.292v3.974h1.7v.266Z" transform="translate(2139.685 -1155.554)" fill="#fff" stroke="#fff" stroke-miterlimit="10" stroke-width="0.135"/><path d="M-2049.959,1160.185a.938.938,0,0,1-.4.1q-.671,0-.671-.8v-2.035h-.544v-.249h.544v-.786c.043-.016.089-.031.136-.047s.093-.029.135-.044v.878h.8v.249h-.8v2a.8.8,0,0,0,.1.454.38.38,0,0,0,.335.141.752.752,0,0,0,.364-.109Z" transform="translate(2137.943 -1155.743)" fill="#fff" stroke="#fff" stroke-miterlimit="10" stroke-width="0.135"/><path d="M-2044.659,1159.9v-.551h-.012a1.1,1.1,0,0,1-.438.456,1.28,1.28,0,0,1-.654.168,1.148,1.148,0,0,1-.912-.407,1.662,1.662,0,0,1-.354-1.127,1.767,1.767,0,0,1,.386-1.187,1.25,1.25,0,0,1,1-.454,1.008,1.008,0,0,1,.97.559h.012v-1.94h.273v4.484Zm0-1.843a1.028,1.028,0,0,0-.267-.718.927.927,0,0,0-.72-.294.989.989,0,0,0-.787.365,1.5,1.5,0,0,0-.311,1,1.493,1.493,0,0,0,.279.968.889.889,0,0,0,.72.342,1.014,1.014,0,0,0,.8-.321,1.14,1.14,0,0,0,.284-.782Z" transform="translate(2136.302 -1155.417)" fill="#fff" stroke="#fff" stroke-miterlimit="10" stroke-width="0.135"/><path d="M-2039.8,1162.247a.225.225,0,0,1-.168-.069.234.234,0,0,1-.068-.17.226.226,0,0,1,.068-.17.232.232,0,0,1,.168-.066.242.242,0,0,1,.172.066.221.221,0,0,1,.071.17.228.228,0,0,1-.071.17A.234.234,0,0,1-2039.8,1162.247Z" transform="translate(2133.778 -1157.71)" fill="#fff" stroke="#fff" stroke-miterlimit="10" stroke-width="0.135"/></g><g transform="translate(-2170.448 1099.034)"><g transform="translate(0 2.192)"><path d="M-2158.767,1136.727v6.523h-.476v-6.523h-2.011v-.442h4.5v.442Z" transform="translate(2161.254 -1136.168)" fill="#fff" stroke="#fff" stroke-miterlimit="10" stroke-width="0.346"/><path d="M-2150.027,1143.25v-6.965h.48v6.965Z" transform="translate(2157.201 -1136.168)" fill="#fff" stroke="#fff" stroke-miterlimit="10" stroke-width="0.346"/><path d="M-2144.143,1143.25v-6.965h1.744a3.673,3.673,0,0,1,2.637.865,3.329,3.329,0,0,1,.9,2.52,3.548,3.548,0,0,1-.969,2.587,3.562,3.562,0,0,1-2.674.993Zm.481-6.523v6.086h1.093a3.285,3.285,0,0,0,2.38-.8,3.081,3.081,0,0,0,.831-2.319q0-2.963-3.113-2.963Z" transform="translate(2155.078 -1136.168)" fill="#fff" stroke="#fff" stroke-miterlimit="10" stroke-width="0.346"/><path d="M-2129.646,1140.6v2.647h-.476v-2.637l-2.132-4.328h.54l1.622,3.356q.087.174.219.516h.02a4.9,4.9,0,0,1,.238-.506l1.7-3.366h.52Z" transform="translate(2150.786 -1136.168)" fill="#fff" stroke="#fff" stroke-miterlimit="10" stroke-width="0.346"/><path d="M-2118.9,1140.6v2.647h-.476v-2.637l-2.132-4.328h.539l1.623,3.356c.058.116.131.288.219.516h.019a5.064,5.064,0,0,1,.239-.506l1.7-3.366h.52Z" transform="translate(2146.909 -1136.168)" fill="#fff" stroke="#fff" stroke-miterlimit="10" stroke-width="0.346"/><path d="M-2103.239,1143.25v-6.965h1.744a3.673,3.673,0,0,1,2.637.865,3.328,3.328,0,0,1,.9,2.52,3.548,3.548,0,0,1-.969,2.587,3.563,3.563,0,0,1-2.674.993Zm.481-6.523v6.086h1.093a3.283,3.283,0,0,0,2.38-.8,3.082,3.082,0,0,0,.831-2.319q0-2.963-3.114-2.963Z" transform="translate(2140.313 -1136.168)" fill="#fff" stroke="#fff" stroke-miterlimit="10" stroke-width="0.346"/><path d="M-2086.594,1143.25l-.8-2.167h-3.022l-.8,2.167h-.53l2.628-6.965h.456l2.6,6.965Zm-2.137-5.829a2.607,2.607,0,0,1-.087-.286c-.022-.081-.047-.162-.073-.243h-.019a4.652,4.652,0,0,1-.16.52l-1.17,3.23h2.686Z" transform="translate(2136.163 -1136.168)" fill="#fff" stroke="#fff" stroke-miterlimit="10" stroke-width="0.346"/><path d="M-2078.8,1140.6v2.647h-.476v-2.637l-2.132-4.328h.539l1.622,3.356q.087.174.219.516h.019a5.252,5.252,0,0,1,.239-.506l1.7-3.366h.52Z" transform="translate(2132.434 -1136.168)" fill="#fff" stroke="#fff" stroke-miterlimit="10" stroke-width="0.346"/><path d="M-2070.385,1142.936v-.548a2.8,2.8,0,0,0,1.515.476,1.952,1.952,0,0,0,1.239-.338,1.141,1.141,0,0,0,.423-.945,1.233,1.233,0,0,0-.284-.852,5.627,5.627,0,0,0-1.232-.867,4.377,4.377,0,0,1-1.34-1.032,1.669,1.669,0,0,1-.282-.959,1.624,1.624,0,0,1,.573-1.253,2.2,2.2,0,0,1,1.53-.515,3.893,3.893,0,0,1,1.244.208v.506a3.133,3.133,0,0,0-1.307-.277,1.662,1.662,0,0,0-1.125.359,1.156,1.156,0,0,0-.415.913,1.225,1.225,0,0,0,.283.85,5.668,5.668,0,0,0,1.226.859,4.4,4.4,0,0,1,1.3.983,1.608,1.608,0,0,1,.323.989,1.684,1.684,0,0,1-.556,1.307,2.254,2.254,0,0,1-1.572.5,3.611,3.611,0,0,1-.828-.112A2.668,2.668,0,0,1-2070.385,1142.936Z" transform="translate(2128.455 -1136.103)" fill="#fff" stroke="#fff" stroke-miterlimit="10" stroke-width="0.346"/></g><circle cx="0.691" cy="0.691" r="0.691" transform="translate(6.764 0)" fill="#ffca1a" stroke="#ffca1a" stroke-miterlimit="10" stroke-width="0.346"/></g><path d="M-2141.336,1092.408h-28.774a12.591,12.591,0,0,1-3.06-6.9s-2.344-11.132,10.156-16.73c0,0,.911-15.234,17.837-20.377,0,0,17.056-6.64,28.709,10.741,0,0,16.274-2.148,21.222,13.737a19.423,19.423,0,0,1-4.752,19.464h-26.56l-11.327,6.185v-20.442l10.872-6.38h-14.322Zm4.817-6.608a.554.554,0,0,0-.553.554.554.554,0,0,0,.553.553.553.553,0,0,0,.553-.553A.554.554,0,0,0-2136.519,1085.8Z" transform="translate(-4.829 -2.772)" fill="#fff" opacity="0.9"/></g></svg>